<?xml version="1.0" standalone="no"?>
<!DOCTYPE svg PUBLIC "-//W3C//DTD SVG 20010904//EN"
 "http://www.w3.org/TR/2001/REC-SVG-20010904/DTD/svg10.dtd">
<svg version="1.0" xmlns="http://www.w3.org/2000/svg"
 width="400.000000pt" height="100.000000pt" viewBox="0 0 400.000000 100.000000"
 preserveAspectRatio="xMidYMid meet">

<g transform="translate(0.000000,100.000000) scale(0.100000,-0.100000)"
fill="#000000" stroke="none">
<path d="M1590 955 c0 -22 4 -25 35 -25 31 0 35 3 35 25 0 22 -4 25 -35 25
-31 0 -35 -3 -35 -25z"/>
<path d="M2840 807 c0 -169 1 -174 24 -196 13 -12 40 -24 60 -28 36 -6 36 -5
36 30 0 31 -3 36 -27 39 l-28 3 -3 163 -2 162 -30 0 -30 0 0 -173z"/>
<path d="M1172 952 c-9 -6 -12 -51 -10 -188 l3 -179 132 0 c117 0 135 2 159
21 53 39 67 68 71 146 4 62 1 80 -19 118 -36 70 -71 84 -208 88 -63 2 -121 -1
-128 -6z m263 -87 c22 -21 25 -33 25 -99 0 -69 -2 -76 -26 -95 -23 -18 -41
-21 -120 -21 l-94 0 0 120 0 120 95 0 c88 0 98 -2 120 -25z"/>
<path d="M970 934 c-141 -37 -340 -166 -447 -291 -80 -94 -155 -217 -178 -293
-4 -14 -17 -35 -28 -47 -11 -13 -16 -23 -10 -23 16 0 26 16 75 111 56 108 116
186 216 280 108 101 278 199 347 199 l25 0 -20 -39 c-61 -120 -74 -269 -32
-364 40 -90 160 -192 205 -174 6 3 4 6 -7 6 -60 3 -147 94 -181 190 -44 126
24 332 141 429 l39 32 -45 -1 c-25 0 -70 -7 -100 -15z"/>
<path d="M1590 720 l0 -140 35 0 35 0 0 140 0 140 -35 0 -35 0 0 -140z"/>
<path d="M1730 725 l0 -135 26 -6 c49 -12 132 23 189 80 43 42 115 162 115
190 0 3 -15 6 -32 6 -30 0 -35 -5 -51 -45 -32 -77 -123 -165 -172 -165 -13 0
-15 17 -15 105 l0 105 -30 0 -30 0 0 -135z"/>
<path d="M2090 731 c0 -149 4 -157 72 -147 95 14 186 94 238 207 27 59 25 69
-10 69 -25 0 -32 -6 -49 -45 -29 -65 -57 -102 -104 -136 -71 -51 -77 -45 -77
76 l0 105 -35 0 -35 0 0 -129z"/>
<path d="M2460 747 c0 -109 1 -114 26 -138 22 -20 38 -24 105 -28 l79 -3 0 36
0 35 -72 3 -73 3 -3 103 -3 102 -29 0 -30 0 0 -113z"/>
<path d="M2698 693 l-3 -168 -72 -3 -73 -3 0 -29 0 -30 79 0 c70 0 83 3 108
24 l28 24 3 176 3 176 -35 0 -36 0 -2 -167z"/>
<path d="M3033 836 c-25 -21 -28 -32 -31 -98 -7 -132 27 -163 173 -157 81 4
88 6 111 32 21 25 24 38 24 113 0 77 -2 87 -25 109 -22 23 -31 25 -124 25 -91
0 -102 -2 -128 -24z m212 -111 l0 -70 -87 -3 -88 -3 0 69 c0 38 3 72 7 76 4 4
43 5 88 4 l80 -3 0 -70z"/>
<path d="M3403 836 c-27 -24 -28 -27 -31 -140 l-4 -116 36 0 35 0 3 108 3 107
88 3 87 3 0 29 0 30 -94 0 c-86 0 -98 -2 -123 -24z"/>
<path d="M3690 835 c-20 -21 -25 -39 -28 -96 -7 -124 25 -159 148 -159 l70 0
0 30 0 30 -68 0 c-40 0 -73 5 -80 12 -13 13 -16 116 -3 136 5 9 31 12 92 10
82 -3 84 -4 84 -28 0 -24 -3 -25 -72 -28 l-73 -3 0 -29 0 -30 79 0 c76 0 80 1
105 31 28 33 33 67 14 102 -21 41 -39 46 -144 47 -95 0 -102 -1 -124 -25z"/>
<path d="M824 693 c-26 -66 -24 -164 4 -225 11 -27 23 -48 25 -48 2 0 -2 23
-9 52 -16 61 -18 155 -3 217 13 60 5 62 -17 4z"/>
<path d="M3089 449 c-19 -19 -19 -59 2 -67 4 -2 20 -13 34 -24 35 -27 32 -73
-5 -73 -22 0 -25 4 -25 33 0 38 -19 37 -23 -1 -4 -36 35 -56 73 -39 51 23 45
83 -11 109 -28 14 -34 22 -32 43 2 17 10 26 25 28 17 3 22 -3 25 -25 4 -23 6
-25 12 -10 10 21 -9 47 -35 47 -11 0 -28 -9 -40 -21z"/>
<path d="M3200 365 c0 -103 16 -131 22 -37 4 76 -1 132 -13 132 -5 0 -9 -42
-9 -95z"/>
<path d="M3550 365 c0 -95 16 -133 22 -53 2 31 8 44 21 46 13 3 17 -3 17 -23
0 -36 17 -65 38 -64 10 0 12 3 5 6 -7 2 -13 18 -13 34 0 16 -9 38 -19 48 -19
19 -19 20 2 35 12 8 17 15 11 15 -6 1 -19 -8 -29 -19 -27 -30 -35 -25 -35 25
0 25 -4 45 -10 45 -6 0 -10 -38 -10 -95z"/>
<path d="M3670 377 c0 -83 9 -107 39 -107 12 0 11 3 -3 13 -13 10 -17 24 -14
62 3 42 6 50 23 50 18 0 20 -7 20 -58 0 -48 2 -55 13 -40 15 21 16 85 0 101
-7 7 -22 12 -35 12 -18 0 -23 6 -23 25 0 14 -4 25 -10 25 -6 0 -10 -34 -10
-83z"/>
<path d="M3785 450 c-4 -6 -3 -16 3 -22 6 -6 12 -6 17 2 4 6 3 16 -3 22 -6 6
-12 6 -17 -2z"/>
<path d="M3844 439 c-11 -18 -5 -141 8 -156 19 -23 23 -14 20 48 -3 44 0 64
10 70 10 6 10 9 1 9 -7 0 -13 9 -13 20 0 22 -15 27 -26 9z"/>
<path d="M3258 398 c7 -7 12 -33 12 -59 0 -48 18 -76 42 -66 8 4 7 6 -4 6 -15
1 -18 10 -18 54 0 50 -12 77 -34 77 -6 0 -5 -5 2 -12z"/>
<path d="M3340 395 c-7 -8 -15 -34 -17 -58 -5 -38 -2 -44 21 -56 14 -8 29 -11
33 -8 3 4 -1 7 -11 7 -14 0 -17 9 -14 58 3 49 6 57 23 57 17 0 20 -8 23 -50 3
-50 15 -76 36 -74 7 0 6 2 -1 6 -9 3 -13 27 -13 67 l0 63 -34 1 c-19 1 -39 -5
-46 -13z"/>
<path d="M3459 355 c-1 -30 -2 -60 -3 -67 -1 -6 4 -13 11 -15 8 -3 13 14 15
54 3 53 5 58 26 57 23 -1 29 10 12 21 -6 4 -17 1 -25 -5 -11 -9 -15 -9 -15 -1
0 6 -4 11 -10 11 -5 0 -11 -25 -11 -55z"/>
<path d="M3780 352 c0 -59 12 -83 40 -81 10 0 11 2 3 6 -9 3 -13 27 -13 69 0
50 -3 64 -15 64 -12 0 -15 -13 -15 -58z"/>
<path d="M3936 402 c-3 -6 -2 -22 4 -37 16 -42 13 -85 -7 -85 -9 0 -14 -3 -10
-6 9 -9 45 5 50 20 6 16 -11 97 -22 109 -5 5 -12 4 -15 -1z"/>
<path d="M3906 322 c-4 -13 -5 -26 -2 -29 10 -11 18 4 14 29 l-4 23 -8 -23z"/>
</g>
</svg>
