<svg width="64" height="64" viewBox="0 0 64 64" fill="none" xmlns="http://www.w3.org/2000/svg" role="img" aria-label="Divvylore">
  <defs>
    <linearGradient id="dv-node-a" x1="0" y1="0" x2="1" y2="1">
      <stop offset="0" stop-color="#B79BE6"/>
      <stop offset="1" stop-color="#6E4DC4"/>
    </linearGradient>
    <linearGradient id="dv-node-b" x1="0" y1="0" x2="1" y2="1">
      <stop offset="0" stop-color="#A484DB"/>
      <stop offset="1" stop-color="#5B3CA8"/>
    </linearGradient>
    <linearGradient id="dv-node-c" x1="0" y1="0" x2="1" y2="1">
      <stop offset="0" stop-color="#C9B4F0"/>
      <stop offset="1" stop-color="#7E5DD0"/>
    </linearGradient>
    <linearGradient id="dv-link" x1="0" y1="0" x2="1" y2="1">
      <stop offset="0" stop-color="#9579D6"/>
      <stop offset="1" stop-color="#5B3CA8"/>
    </linearGradient>
  </defs>

  <path d="M19 18 L32 32 L19 46" stroke="url(#dv-link)" stroke-width="9" stroke-linecap="round" stroke-linejoin="round" opacity="0.95"/>
  <path d="M45 18 L32 32 L45 46" stroke="url(#dv-link)" stroke-width="9" stroke-linecap="round" stroke-linejoin="round" opacity="0.95"/>

  <circle cx="19" cy="18" r="8.5" fill="url(#dv-node-a)"/>
  <circle cx="45" cy="18" r="8.5" fill="url(#dv-node-c)"/>
  <circle cx="32" cy="32" r="9.5" fill="url(#dv-node-b)"/>
  <circle cx="19" cy="46" r="8.5" fill="url(#dv-node-c)"/>
  <circle cx="45" cy="46" r="8.5" fill="url(#dv-node-a)"/>

  <circle cx="19" cy="18" r="2.2" fill="#FFFFFF" fill-opacity="0.85"/>
  <circle cx="45" cy="18" r="2.2" fill="#FFFFFF" fill-opacity="0.85"/>
  <circle cx="32" cy="32" r="2.6" fill="#FFFFFF" fill-opacity="0.9"/>
  <circle cx="19" cy="46" r="2.2" fill="#FFFFFF" fill-opacity="0.85"/>
  <circle cx="45" cy="46" r="2.2" fill="#FFFFFF" fill-opacity="0.85"/>
</svg>
